<svg width="1200" height="760" viewBox="0 0 1200 760" fill="none" xmlns="http://www.w3.org/2000/svg">
  <rect width="1200" height="760" rx="40" fill="#060B16"/>
  <rect x="46" y="46" width="1108" height="668" rx="30" fill="url(#paint0_linear)"/>
  <circle cx="1022" cy="566" r="164" fill="#9B6DFF" fill-opacity="0.18"/>
  <circle cx="235" cy="186" r="138" fill="#58F3FF" fill-opacity="0.15"/>
  <rect x="98" y="110" width="150" height="18" rx="9" fill="#C8FDFF" fill-opacity="0.9"/>
  <rect x="98" y="164" width="336" height="76" rx="20" fill="white" fill-opacity="0.1"/>
  <rect x="98" y="276" width="280" height="20" rx="10" fill="white" fill-opacity="0.22"/>
  <rect x="98" y="316" width="214" height="20" rx="10" fill="white" fill-opacity="0.16"/>
  <rect x="98" y="378" width="190" height="54" rx="27" fill="#9B6DFF" fill-opacity="0.84"/>
  <rect x="590" y="146" width="490" height="446" rx="34" fill="white" fill-opacity="0.06" stroke="white" stroke-opacity="0.08"/>
  <rect x="636" y="194" width="164" height="152" rx="26" fill="#121D32"/>
  <rect x="836" y="194" width="198" height="152" rx="26" fill="url(#paint1_linear)"/>
  <rect x="636" y="384" width="398" height="164" rx="26" fill="#0E1628"/>
  <defs>
    <linearGradient id="paint0_linear" x1="72" y1="70" x2="1080" y2="700" gradientUnits="userSpaceOnUse">
      <stop stop-color="#0F1830"/>
      <stop offset="1" stop-color="#0A0E19"/>
    </linearGradient>
    <linearGradient id="paint1_linear" x1="836" y1="194" x2="1034" y2="346" gradientUnits="userSpaceOnUse">
      <stop stop-color="#58F3FF"/>
      <stop offset="1" stop-color="#8B5CF6"/>
    </linearGradient>
  </defs>
</svg>
